<?xml version="1.0" encoding="UTF-8" standalone="no"?>
<svg
   xmlns:dc="http://purl.org/dc/elements/1.1/"
   xmlns:cc="http://creativecommons.org/ns#"
   xmlns:rdf="http://www.w3.org/1999/02/22-rdf-syntax-ns#"
   xmlns:svg="http://www.w3.org/2000/svg"
   xmlns="http://www.w3.org/2000/svg"
   xmlns:sodipodi="http://sodipodi.sourceforge.net/DTD/sodipodi-0.dtd"
   xmlns:inkscape="http://www.inkscape.org/namespaces/inkscape"
   width="30"
   height="30"
   viewBox="0 0 30 30"
   fill="none"
   version="1.1"
   id="svg4"
   sodipodi:docname="coffee.svg"
   inkscape:version="1.0.2-2 (e86c870879, 2021-01-15)">
  <metadata
     id="metadata10">
    <rdf:RDF>
      <cc:Work
         rdf:about="">
        <dc:format>image/svg+xml</dc:format>
        <dc:type
           rdf:resource="http://purl.org/dc/dcmitype/StillImage" />
        <dc:title></dc:title>
      </cc:Work>
    </rdf:RDF>
  </metadata>
  <defs
     id="defs8" />
  <sodipodi:namedview
     pagecolor="#ffffff"
     bordercolor="#666666"
     borderopacity="1"
     objecttolerance="10"
     gridtolerance="10"
     guidetolerance="10"
     inkscape:pageopacity="0"
     inkscape:pageshadow="2"
     inkscape:window-width="1920"
     inkscape:window-height="1012"
     id="namedview6"
     showgrid="false"
     inkscape:zoom="20.032515"
     inkscape:cx="17.634542"
     inkscape:cy="12.02598"
     inkscape:window-x="-8"
     inkscape:window-y="-8"
     inkscape:window-maximized="1"
     inkscape:current-layer="svg4" />
  <path
     d="m 5.7877708,26.949751 c -1.35396,-2.3883 -0.43291,-6.1336 2.36848,-8.9353 3.1815002,-3.181 7.5800002,-3.9392 9.8258002,-1.6937 0.0023,0.0028 0.0051,0.006 0.0085,0.009 -0.4494,1.3079 -1.881,4.0899 -6.1712,5.5942 -3.9306102,1.3785 -5.4465002,3.5709 -6.0315802,5.0258 z m 10.8719802,-6.9598 c -1.026,1.0269 -2.4844,2.0347 -4.5502,2.7597 -4.1925702,1.47 -5.3639002,3.8772 -5.6907902,5.0428 0.01583,0.0159 0.02862,0.0324 0.04348,0.047 2.24551,2.2456 6.6446102,1.4873 9.8253102,-1.6937 2.8305,-2.8305 3.741,-6.6239 2.326,-9.0081 -0.3406,0.7941 -0.933,1.8314 -1.9538,2.8523 z M 7.9839708,9.6445608 c 4.5291802,0.3969002 6.9793802,-1.5488 7.9272802,-2.55503 -0.0016,-0.00399 -0.0028,-0.0085 -0.004,-0.01212 -1.1209,-2.97093 -5.4416,-4.09206 -9.6504802,-2.50401 -3.70669,1.3987 -6.08936304,4.43188 -5.83952504,7.1657502 C 1.5499108,10.654851 3.8344608,9.2815908 7.9839708,9.6445608 Z m 2.3322502,5.6881902 c 3.74553,-1.4128 6.13723,-4.4947 5.83023,-7.2502902 -0.6375,0.58344 -1.6048,1.28497 -2.9554,1.79471 -1.3578,0.5122402 -3.10205,0.8302802 -5.2827902,0.6392802 -4.42552,-0.38804 -6.48515,1.323 -7.26365404,2.2511 0.007912,0.0207 0.013457,0.0409 0.020629,0.0603 1.12113504,2.9717 5.44195504,4.0933 9.65098524,2.5049 z m 13.10793,-6.1954902 c 2.7174,-3.64583 2.3486,-6.7531 1.9902,-8.088211 -0.0041,-4.43e-4 -0.0082,-0.002 -0.012,-0.00288 -3.1171,-0.60688804 -6.3409,2.481004 -7.2007,6.896324 -0.7572,3.8896602 0.5726,7.5097602 3.0299,8.7335602 -0.3276,-1.5335 -0.2957,-4.1985 2.1926,-7.5387902 z m 2.9588,-7.766578 c 0.1617,0.849258 0.2505,2.040778 -0.0254,3.457298 -0.2771,1.42494 -0.9234,3.07606 -2.2311,4.83166 -2.6549,3.5620102 -2.2811,6.2128102 -1.9002,7.3627102 0.0217,0.0045 0.0421,0.0101 0.0622,0.0145 3.1174,0.6069 6.3408,-2.4805 7.2005,-6.89624 0.7656,-3.9293902 -0.6004,-7.5841002 -3.106,-8.7699282 z"
     fill="#ffffff"
     id="path2" />
</svg>
