<svg xmlns="http://www.w3.org/2000/svg" width="30" height="30" fill="none" xmlns:v="https://vecta.io/nano"><path d="M5.788 26.95c-1.354-2.388-.433-6.134 2.368-8.935 3.182-3.181 7.58-3.939 9.826-1.694-.441 1.317-1.872 4.099-6.163 5.603-3.931 1.378-5.447 3.571-6.032 5.026zm10.872-6.96c-1.026 1.027-2.484 2.035-4.55 2.76-4.193 1.47-5.364 3.877-5.691 5.043l.043.047c2.246 2.246 6.645 1.487 9.825-1.694 2.831-2.831 3.741-6.624 2.326-9.008-.341.794-.933 1.831-1.954 2.852zM7.984 9.645c4.529.397 6.979-1.549 7.927-2.555-1.125-2.983-5.446-4.104-9.654-2.516C2.55 5.972.167 9.005.417 11.739c1.133-1.084 3.417-2.458 7.567-2.095zm2.332 5.688c3.746-1.413 6.137-4.495 5.83-7.25-.637.583-1.605 1.285-2.955 1.795-1.358.512-3.102.83-5.283.639-4.426-.388-6.485 1.323-7.264 2.251l.021.06c1.121 2.972 5.442 4.093 9.651 2.505zm13.108-6.195c2.717-3.646 2.349-6.753 1.99-8.088-3.129-.61-6.353 2.478-7.213 6.893-.757 3.89.573 7.51 3.03 8.734-.328-1.533-.296-4.198 2.193-7.539zm2.959-7.767c.162.849.25 2.041-.025 3.457-.277 1.425-.923 3.076-2.231 4.832-2.655 3.562-2.281 6.213-1.9 7.363l.062.015c3.117.607 6.341-2.48 7.201-6.896.766-3.929-.6-7.584-3.106-8.77z" fill="#fff"/></svg>