<?xml version="1.0" encoding="UTF-8" standalone="no"?>
<svg
   xmlns:dc="http://purl.org/dc/elements/1.1/"
   xmlns:cc="http://creativecommons.org/ns#"
   xmlns:rdf="http://www.w3.org/1999/02/22-rdf-syntax-ns#"
   xmlns:svg="http://www.w3.org/2000/svg"
   xmlns="http://www.w3.org/2000/svg"
   xmlns:sodipodi="http://sodipodi.sourceforge.net/DTD/sodipodi-0.dtd"
   xmlns:inkscape="http://www.inkscape.org/namespaces/inkscape"
   height="100%"
   style="fill-rule:evenodd;clip-rule:evenodd;stroke-linejoin:round;stroke-miterlimit:2;"
   version="1.1"
   viewBox="0 0 512 512"
   width="100%"
   xml:space="preserve"
   id="svg14"
   sodipodi:docname="coffee_icon.svg"
   inkscape:version="1.0.2-2 (e86c870879, 2021-01-15)"><metadata
     id="metadata18"><rdf:RDF><cc:Work
         rdf:about=""><dc:format>image/svg+xml</dc:format><dc:type
           rdf:resource="http://purl.org/dc/dcmitype/StillImage" /><dc:title></dc:title></cc:Work></rdf:RDF></metadata><sodipodi:namedview
     pagecolor="#ffffff"
     bordercolor="#666666"
     borderopacity="1"
     objecttolerance="10"
     gridtolerance="10"
     guidetolerance="10"
     inkscape:pageopacity="0"
     inkscape:pageshadow="2"
     inkscape:window-width="1920"
     inkscape:window-height="1012"
     id="namedview16"
     showgrid="false"
     inkscape:zoom="0.56732708"
     inkscape:cx="437.75572"
     inkscape:cy="271.85167"
     inkscape:window-x="-8"
     inkscape:window-y="-8"
     inkscape:window-maximized="1"
     inkscape:current-layer="g954" /><g
     id="WhatsApp-Logo-Icon"><path
       d="m 116.225,-0.001 c -11.264,0.512 -26.112,1.536 -32.768,3.072 -10.24,2.048 -19.968,5.12 -27.648,9.216 -9.728,4.608 -17.92,10.752 -25.088,17.92 -7.68,7.68 -13.824,15.872 -18.432,25.6 -4.096,7.68 -7.168,17.408 -9.216,27.648 -1.536,6.656 -2.56,21.504 -2.56,32.768 -0.512,4.608 -0.512,10.752 -0.512,13.824 v 251.905 13.824 c 0.512,11.264 1.536,26.112 3.072,32.768 2.048,10.24 5.12,19.968 9.216,27.648 4.608,9.728 10.752,17.92 17.92,25.088 7.68,7.68 15.872,13.824 25.6,18.432 7.68,4.096 17.408,7.168 27.648,9.216 6.656,1.536 21.504,2.56 32.768,2.56 4.608,0.512 10.752,0.512 13.824,0.512 h 251.904 13.824 c 11.264,-0.512 26.112,-1.536 32.768,-3.072 10.24,-2.048 19.968,-5.12 27.648,-9.216 9.728,-4.608 17.92,-10.752 25.088,-17.92 7.68,-7.68 13.824,-15.872 18.432,-25.6 4.096,-7.68 7.168,-17.408 9.216,-27.648 1.536,-6.656 2.56,-21.504 2.56,-32.768 0.512,-4.608 0.512,-10.752 0.512,-13.824 V 116.223 c -0.512,-11.264 -1.536,-26.112 -3.072,-32.768 -2.048,-10.24 -5.12,-19.968 -9.216,-27.648 -4.608,-9.728 -10.752,-17.92 -17.92,-25.088 -7.68,-7.68 -15.872,-13.824 -25.6,-18.432 -7.68,-4.096 -17.408,-7.168 -27.648,-9.216 -6.656,-1.536 -21.504,-2.56 -32.768,-2.56 -4.608,-0.512 -10.752,-0.512 -13.824,-0.512 z"
       style="mix-blend-mode:normal;fill:#dc6b23;fill-opacity:1;fill-rule:nonzero"
       id="path2" /><g
       style="fill:none"
       id="g954"
       transform="matrix(16.066255,0,0,16.066255,11.425921,20.00691)"><path
         d="m 5.788,26.95 c -1.354,-2.388 -0.433,-6.134 2.368,-8.935 3.182,-3.181 7.58,-3.939 9.826,-1.694 -0.441,1.317 -1.872,4.099 -6.163,5.603 -3.931,1.378 -5.447,3.571 -6.032,5.026 z M 16.66,19.99 c -1.026,1.027 -2.484,2.035 -4.55,2.76 -4.193,1.47 -5.364,3.877 -5.691,5.043 l 0.043,0.047 c 2.246,2.246 6.645,1.487 9.825,-1.694 2.831,-2.831 3.741,-6.624 2.326,-9.008 -0.341,0.794 -0.933,1.831 -1.954,2.852 z M 7.984,9.645 C 12.513,10.042 14.963,8.096 15.911,7.09 14.786,4.107 10.465,2.986 6.257,4.574 2.55,5.972 0.167,9.005 0.417,11.739 1.55,10.655 3.834,9.281 7.984,9.644 Z m 2.332,5.688 c 3.746,-1.413 6.137,-4.495 5.83,-7.25 -0.637,0.583 -1.605,1.285 -2.955,1.795 -1.358,0.512 -3.102,0.83 -5.283,0.639 -4.426,-0.388 -6.485,1.323 -7.264,2.251 l 0.021,0.06 c 1.121,2.972 5.442,4.093 9.651,2.505 z M 23.424,9.138 c 2.717,-3.646 2.349,-6.753 1.99,-8.088 -3.129,-0.61 -6.353,2.478 -7.213,6.893 -0.757,3.89 0.573,7.51 3.03,8.734 -0.328,-1.533 -0.296,-4.198 2.193,-7.539 z m 2.959,-7.767 c 0.162,0.849 0.25,2.041 -0.025,3.457 -0.277,1.425 -0.923,3.076 -2.231,4.832 -2.655,3.562 -2.281,6.213 -1.9,7.363 l 0.062,0.015 c 3.117,0.607 6.341,-2.48 7.201,-6.896 0.766,-3.929 -0.6,-7.584 -3.106,-8.77 z"
         fill="#ffffff"
         id="path943" /></g></g><defs
     id="defs12"><linearGradient
       gradientTransform="matrix(0,-512,-512,0,256.001,512)"
       gradientUnits="userSpaceOnUse"
       id="_Linear1"
       x1="0"
       x2="1"
       y1="0"
       y2="0"><stop
         offset="0"
         style="stop-color:#25cf43;stop-opacity:1"
         id="stop7" /><stop
         offset="1"
         style="stop-color:#61fd7d;stop-opacity:1"
         id="stop9" /></linearGradient></defs></svg>
